<svg width="32" height="32" viewBox="0 0 32 32" fill="none" xmlns="http://www.w3.org/2000/svg">
  <!-- 背景圆形 -->
  <circle cx="16" cy="16" r="16" fill="#FF6B35"/>
  
  <!-- 渐变背景 -->
  <defs>
    <linearGradient id="bgGradient" x1="0%" y1="0%" x2="100%" y2="100%">
      <stop offset="0%" style="stop-color:#FF6B35;stop-opacity:1" />
      <stop offset="100%" style="stop-color:#F7931E;stop-opacity:1" />
    </linearGradient>
    <linearGradient id="iconGradient" x1="0%" y1="0%" x2="100%" y2="100%">
      <stop offset="0%" style="stop-color:#FFFFFF;stop-opacity:1" />
      <stop offset="100%" style="stop-color:#FFF8DC;stop-opacity:1" />
    </linearGradient>
  </defs>
  
  <!-- 主背景 -->
  <circle cx="16" cy="16" r="16" fill="url(#bgGradient)"/>
  
  <!-- 游戏手柄图标 -->
  <g transform="translate(8, 8)">
    <!-- 手柄主体 -->
    <rect x="2" y="6" width="12" height="4" rx="2" fill="url(#iconGradient)"/>
    
    <!-- 左摇杆 -->
    <circle cx="4" cy="8" r="1.5" fill="#FF6B35"/>
    <circle cx="4" cy="8" r="1" fill="url(#iconGradient)"/>
    
    <!-- 右摇杆 -->
    <circle cx="12" cy="8" r="1.5" fill="#FF6B35"/>
    <circle cx="12" cy="8" r="1" fill="url(#iconGradient)"/>
    
    <!-- 按钮 -->
    <circle cx="6" cy="6" r="0.8" fill="#FF6B35"/>
    <circle cx="10" cy="6" r="0.8" fill="#FF6B35"/>
    
    <!-- 装饰星星 -->
    <g fill="url(#iconGradient)">
      <path d="M1 2 L1.5 3 L3 3 L2 4 L2.5 5 L1 4 L-0.5 5 L0 4 L-1 3 L0.5 3 Z"/>
      <path d="M15 1 L15.3 1.5 L15.8 1.5 L15.5 2 L15.7 2.5 L15 2.2 L14.3 2.5 L14.5 2 L14.2 1.5 L14.7 1.5 Z"/>
    </g>
  </g>
  
  <!-- 外圈装饰 -->
  <circle cx="16" cy="16" r="15" fill="none" stroke="url(#iconGradient)" stroke-width="1" opacity="0.3"/>
</svg>
