<svg width="128" height="128" viewBox="0 0 128 128" xmlns="http://www.w3.org/2000/svg">
  <defs>
    <linearGradient id="grad1" x1="0%" y1="0%" x2="100%" y2="100%">
      <stop offset="0%" style="stop-color:#667eea;stop-opacity:1" />
      <stop offset="100%" style="stop-color:#764ba2;stop-opacity:1" />
    </linearGradient>
  </defs>
  
  <!-- 背景圆形 -->
  <circle cx="64" cy="64" r="60" fill="url(#grad1)" stroke="#fff" stroke-width="4"/>
  
  <!-- 游戏控制器图标 -->
  <rect x="40" y="50" width="48" height="28" rx="14" fill="#fff" opacity="0.9"/>
  <rect x="44" y="54" width="40" height="20" rx="10" fill="#667eea"/>
  
  <!-- 方向键 -->
  <rect x="48" y="58" width="8" height="8" rx="2" fill="#fff"/>
  <rect x="48" y="66" width="8" height="8" rx="2" fill="#fff"/>
  <rect x="40" y="66" width="8" height="8" rx="2" fill="#fff"/>
  <rect x="56" y="66" width="8" height="8" rx="2" fill="#fff"/>
  
  <!-- 按钮 -->
  <circle cx="68" cy="62" r="4" fill="#fff"/>
  <circle cx="76" cy="70" r="4" fill="#fff"/>
  
  <!-- 数据采集图标 -->
  <rect x="20" y="20" width="8" height="8" fill="#fff" opacity="0.8"/>
  <rect x="30" y="20" width="8" height="8" fill="#fff" opacity="0.8"/>
  <rect x="40" y="20" width="8" height="8" fill="#fff" opacity="0.8"/>
  
  <rect x="20" y="30" width="8" height="8" fill="#fff" opacity="0.6"/>
  <rect x="30" y="30" width="8" height="8" fill="#fff" opacity="0.6"/>
  <rect x="40" y="30" width="8" height="8" fill="#fff" opacity="0.6"/>
  
  <!-- JSON图标 -->
  <text x="90" y="30" font-family="Arial, sans-serif" font-size="12" fill="#fff" opacity="0.8">{ }</text>
</svg>

